<?xml version="1.0" encoding="iso-8859-1"?>
<!-- Generator: Adobe Illustrator 19.0.0, SVG Export Plug-In . SVG Version: 6.00 Build 0)  -->
<svg version="1.1" id="Layer_1" xmlns="http://www.w3.org/2000/svg" xmlns:xlink="http://www.w3.org/1999/xlink" x="0px" y="0px"
	 viewBox="0 0 233.216 265.758" style="enable-background:new 0 0 233.216 265.758;" xml:space="preserve">
<g>
	<path d="M233.206,132.879c0.001-0.127,0.01-0.252,0.01-0.379h-0.019c-0.406-22.445-18.715-40.519-41.257-40.519
		c-1.384,0-2.75,0.071-4.099,0.204c0.003-0.028,0.006-0.055,0,0C152.56,91.981,140.9,71.5,140.9,44.912c0.077-0.008,0.038-0.004,0,0
		c0.105-1.199,0.169-2.409,0.169-3.635C141.069,18.48,122.589,0,99.793,0C76.996,0,58.516,18.48,58.516,41.276
		c0,22.796,18.48,41.276,41.276,41.276c2.623,0,4.518-0.136,7.684,0.114c27.583,0.083,43.458,15.032,42.583,36.833v26.758
		c0.875,21.801-15,36.75-42.583,36.833c-3.167,0.25-5.061,0.114-7.684,0.114c-22.796,0-41.276,18.48-41.276,41.276
		c0,22.796,18.48,41.276,41.276,41.276c22.796,0,41.276-18.48,41.276-41.276c0-1.226-0.064-2.437-0.169-3.635
		c0.038,0.004,0.077,0.008,0,0c0-26.588,11.66-47.069,46.94-47.273c0.007,0.055,0.003,0.028,0,0
		c1.349,0.133,2.715,0.204,4.099,0.204c22.542,0,40.852-18.073,41.257-40.519h0.019
		C233.216,133.131,233.207,133.006,233.206,132.879z"/>
	<path d="M82.533,133.258h0.019c0-0.127-0.008-0.252-0.01-0.379c0.001-0.127,0.01-0.252,0.01-0.379h-0.019
		c-0.406-22.445-18.715-40.519-41.257-40.519S0.425,110.055,0.019,132.5H0c0,0.127,0.008,0.252,0.01,0.379
		C0.008,133.006,0,133.131,0,133.258h0.019c0.406,22.445,18.715,40.519,41.257,40.519S82.128,155.703,82.533,133.258z"/>
</g>
</svg>
